<?xml version="1.0" encoding="UTF-8"?>
<!DOCTYPE svg PUBLIC "-//W3C//DTD SVG 1.1//EN" "http://www.w3.org/Graphics/SVG/1.1/DTD/svg11.dtd">
<!-- Creator: CorelDRAW 2019 (64-Bit) -->
<svg xmlns="http://www.w3.org/2000/svg" width="200" height="80" version="1.1" style="shape-rendering:geometricPrecision; text-rendering:geometricPrecision; image-rendering:optimizeQuality; fill-rule:evenodd; clip-rule:evenodd"
viewBox="1200 0 100 970"
 xmlns:xlink="http://www.w3.org/1999/xlink"
 xmlns:xodm="http://www.corel.com/coreldraw/odm/2003">
 <defs>
  <style type="text/css">
   <![CDATA[
    .fil3 {fill:#FEFEFE}
    .fil1 {fill:#E62129}
    .fil2 {fill:#FDDF58}
    .fil0 {fill:#2F318B}
   ]]>
  </style>
 </defs>
 <g id="Layer_x0020_1">
  <metadata id="CorelCorpID_0Corel-Layer"/>
  <polygon class="fil0" points="0,0 2127,0 2127,1079.75 0,1079.75 "/>
  <path class="fil1" d="M467.01 547.46c-106.8,117.11 -174.78,267.65 -220.99,436.95 -50.22,-32.81 -100.45,-65.63 -150.67,-98.44 89.3,-134.36 206.61,-251.29 371.66,-338.51zm371.81 -266.02c-8.86,36.6 -17.72,77.33 -26.59,113.93 -97.08,17.22 -199.55,65.42 -303.98,124.83 82.13,-103.73 207.37,-172.38 330.57,-238.76z"/>
  <path class="fil2" d="M161.78 755.85c0,-14.83 0,-29.66 0,-44.49 35.08,-23.8 69.44,-38.91 103.39,-49.15 -40.97,25.89 -74.85,57.58 -103.39,93.64zm32.57 -86.14c11.93,-29.4 23.85,-58.8 35.78,-88.2 75.82,-29.56 149.52,-40.15 222.05,-40.1 -92.42,30.74 -176.92,76.18 -257.83,128.3zm-78.51 -60.06c2.46,-12.25 6.18,-24.29 11.2,-36.12 32.72,-4.41 65.45,-6.27 98.18,-2.55 -40.28,9.84 -75.89,23.41 -109.38,38.67zm84.84 -56.33c5.5,-12.49 10.99,-24.98 16.49,-37.47 42.76,-0.52 83.26,5.76 121.03,20.23 -45.84,1.5 -91.68,7.75 -137.52,17.24zm77.32 -45.4c12.05,-13.45 24.1,-26.9 36.15,-40.35 43.54,16.02 85.91,34.77 126.87,56.81 -54.34,-8.6 -108.68,-13.03 -163.02,-16.46zm-142.94 -59.4c10.77,-12.1 21.54,-24.2 32.32,-36.3 41.32,13.68 81.5,28.89 120.82,45.25 -50.72,-4.98 -101.76,-7.99 -153.14,-8.95zm152.24 -100.63c9.47,-5.06 18.94,-10.13 28.42,-15.2 22.6,21.44 43.55,47.87 62.83,79.28 -28.81,-23.94 -59.13,-45.46 -91.25,-64.08zm64.54 89.83c12.14,-4.11 24.28,-8.22 36.42,-12.33 18.82,26.12 37.29,52.93 55.35,80.59 -28.32,-24.57 -59.63,-46.75 -91.77,-68.26zm89.84 -61.64c4.62,39.69 11.24,79.38 23.37,119.07 -19.27,-26.7 -36.23,-60.33 -52.04,-97.46 9.56,-7.2 19.11,-14.41 28.67,-21.61zm16.99 -48.7c15.17,-2.93 30.34,-5.86 45.51,-8.79 -12.75,56.56 -17.34,113.11 -15.17,169.67 -21.17,-47.78 -27.32,-103.51 -30.34,-160.88zm109.76 -15.96c15.68,9.38 31.36,18.76 47.04,28.14 -41.69,49.05 -80.66,99.8 -112.97,154.72 13.44,-59.4 39.48,-121.09 65.93,-182.86zm-20.34 -66.15c10.09,0.55 20.19,1.1 30.28,1.65 -23,38.32 -42.15,78.57 -57.8,120.57 3.48,-38.26 12.29,-78.83 27.52,-122.22zm-17.77 -118.06c15.68,1.96 31.36,3.92 47.04,5.88 -28.05,48.14 -51.34,99.44 -65.27,157 -9.67,-49.38 2.71,-105.64 18.23,-162.88zm283.87 -31.87c21.07,11.81 42.14,23.62 63.21,35.43 -84.61,47.4 -168.24,102.31 -247.29,192.42 33.24,-74.98 97.12,-151.02 184.08,-227.85z"/>
  <path class="fil3" d="M570.69 783.57l-80.76 0 0 -249.12 62.47 0c19.69,0 35.08,2.8 46.09,8.28 11.07,5.54 19.46,13.14 25.29,22.82 5.82,9.74 8.68,20.94 8.68,33.66 0,24.47 -12.12,42 -36.36,52.59 17.42,3.47 31.29,10.95 41.6,22.46 10.32,11.56 15.45,25.32 15.45,41.39 0,12.72 -3.15,24.04 -9.39,34.02 -6.29,9.98 -15.44,18.14 -27.56,24.47 -12.12,6.27 -27.33,9.43 -45.51,9.43zm-17.25 -217.35l-29.36 0 0 74.87 22.72 0c18.18,0 31.12,-3.6 38.81,-10.9 7.69,-7.24 11.54,-16.61 11.54,-28.12 0,-23.92 -14.57,-35.85 -43.71,-35.85zm2.57 106.64l-31.93 0 0 79 33.62 0c18.7,0 31.35,-1.52 37.99,-4.56 6.64,-3.05 12,-7.79 16.08,-14.19 4.03,-6.45 6.06,-13.33 6.06,-20.69 0,-7.61 -2.15,-14.55 -6.41,-20.88 -4.31,-6.27 -10.37,-10.95 -18.18,-14.06 -7.86,-3.1 -20.27,-4.62 -37.23,-4.62zm227.53 11.44l0 70.16c0,5.64 1.9,8.46 5.59,8.46 2.38,0 5.56,-1.26 9.7,-3.43 14.27,-7.47 3.24,18.05 -9.11,24.33 -4.18,2.13 -8.92,2.63 -13.68,2.63 -13.56,0 -21.59,-5.51 -24.03,-16.54 -13.5,10.78 -27.84,16.17 -43.07,16.17 -11.12,0 -20.41,-3.79 -27.84,-11.39 -7.44,-7.6 -11.18,-17.16 -11.18,-28.62 0,-10.42 3.62,-19.73 10.88,-27.95 7.26,-8.21 17.61,-14.7 30.94,-19.48l40.62 -14.34 0 -8.83c0,-19.85 -9.63,-29.78 -28.9,-29.78 -17.32,0 -34.21,9.19 -50.57,27.64l0 -35.73c12.31,-14.95 30.04,-22.43 53.18,-22.43 17.31,0 31.17,4.66 41.64,13.97 3.45,3.01 6.61,6.99 9.4,11.95 2.8,4.97 4.58,9.93 5.3,14.89 0.77,5.03 1.13,14.4 1.13,28.32zm-31.18 66.61l0 -49.03 -21.29 8.46c-10.77,4.41 -18.44,8.89 -22.9,13.36 -4.47,4.47 -6.73,10.05 -6.73,16.79 0,6.8 2.15,12.38 6.37,16.67 4.28,4.35 9.76,6.5 16.48,6.5 10.11,0 19.45,-4.29 28.07,-12.75zm103.76 -132.49l0 20.96c14.05,-16.12 30.05,-24.21 47.94,-24.21 9.92,0 19.13,2.64 27.63,7.97 8.56,5.33 15.05,12.62 19.48,21.94 4.43,9.25 6.67,23.96 6.67,44.06 0,31.48 0,62.95 0,94.43 -22.73,3.24 -26.54,-9.06 -31.47,-20.44l0 -73.62c0,-16.92 -2.48,-28.93 -7.43,-36.16 -4.96,-7.29 -13.29,-10.91 -24.92,-10.91 -14.88,0 -27.51,7.72 -37.9,23.17l0 117.96 -32.18 0 0 -165.15 32.18 0zm234.38 0l36.26 0 -66.85 79.77c26.34,28.07 53.27,57.32 79.61,85.38 -18.43,3.43 -39.87,-1.5 -61.4,-20.07l-58.67 -64.13 71.05 -80.95zm-72.42 -85.67l0 250.82 -32.14 0c0,-73.42 0,-146.84 0,-220.26 2.17,-11.76 12.88,-21.95 32.14,-30.56zm255.24 2.64l0 247.58c0,23.1 -2.36,40.2 -7.01,51.29 -4.65,11.03 -12.15,19.91 -22.55,26.53 -10.39,6.68 -22.9,9.99 -37.53,9.99 -2.23,0 -6.1,-0.36 -11.54,-1.1l-6.53 -33.4 9.01 0c10.15,0 17.95,-1.22 23.27,-3.74 5.38,-2.51 9.67,-6.92 12.75,-13.3 3.14,-6.31 4.71,-19.79 4.71,-40.38 0,-67.86 0,-135.73 0,-203.59 0.83,-23.6 15.07,-34.6 35.42,-39.88zm154.69 111.9l57.1 -59.9 0 33.91c17.03,0 34.05,0 51.08,0 -2.31,9.32 -6.41,18.79 -22.99,29.22l-28.09 0 0 80.42c0,18.81 7.3,28.19 21.89,28.19 10.88,0 22.39,-3.9 34.53,-11.75l0 30.31c-11.68,7 -24.45,10.54 -38.24,10.54 -13.9,0 -25.47,-4.33 -34.71,-13.03 -2.9,-2.62 -5.3,-5.54 -7.18,-8.83 -1.88,-3.29 -3.47,-7.55 -4.78,-12.84 -1.26,-5.3 -1.88,-15.35 -1.88,-30.26l0 -72.75 -26.73 0 0 -3.23zm266.98 59.9l-113.8 0c0.84,15.74 6,28.26 15.61,37.53 9.54,9.34 21.84,13.97 36.97,13.97 21.13,0 40.58,-6.65 58.4,-20.01l0 31.79c-9.84,6.71 -19.63,11.47 -29.29,14.34 -9.66,2.87 -21.01,4.27 -34.03,4.27 -17.83,0 -32.23,-3.78 -43.22,-11.29 -11.04,-7.5 -19.86,-17.57 -26.47,-30.26 -6.66,-12.69 -9.96,-27.4 -9.96,-44.06 0,-25.02 6.96,-45.4 20.95,-61.09 13.92,-15.68 32.05,-23.49 54.32,-23.49 21.42,0 38.59,7.63 51.31,22.88 12.79,15.26 19.21,35.7 19.21,61.33l0 4.09zm-113.08 -19.46l81.39 0c-0.78,-13 -4.62,-23.01 -11.4,-30.03 -6.79,-7.08 -15.97,-10.56 -27.43,-10.56 -11.47,0 -20.89,3.48 -28.21,10.56 -7.33,7.02 -12.13,17.03 -14.35,30.03zm297.22 -7.16c0,-17.48 6.33,-31.3 18.99,-41.47 12.67,-10.17 29.98,-15.23 51.87,-15.23 27.22,0 54.44,0 81.66,0 -4.07,10.2 -8.9,20.01 -22.61,25.34 -8.33,0 -16.65,0 -24.97,0 6.39,6.51 10.79,12.48 13.27,17.84 2.47,5.36 3.73,11.45 3.73,18.33 0,8.59 -2.41,17 -7.23,25.28 -4.83,8.28 -11.1,14.62 -18.64,19 -7.6,4.39 -20.08,7.92 -37.39,10.54 -12.12,1.76 -18.22,5.97 -18.22,12.67 0,3.77 2.3,6.94 6.82,9.37 4.52,2.44 12.73,4.94 24.67,7.56 19.9,4.38 32.69,7.85 38.42,10.35 5.73,2.5 10.85,6.09 15.43,10.72 7.79,7.86 11.7,17.72 11.7,29.6 0,15.59 -6.87,28.01 -20.62,37.33 -13.69,9.26 -32.09,13.89 -55,13.89 -23.22,0 -41.74,-4.69 -55.61,-14.01 -13.81,-9.32 -20.75,-21.86 -20.75,-37.58 0,-22.23 13.63,-36.54 40.83,-43 -10.85,-7 -16.28,-13.94 -16.28,-20.82 0,-5.24 2.35,-10.05 6.99,-14.32 4.65,-4.26 10.92,-7.43 18.82,-9.44 -23.94,-10.72 -35.88,-28.01 -35.88,-51.95zm60.43 -28.5c-8.69,0 -16.1,2.92 -22.26,8.89 -6.15,5.97 -9.16,13.1 -9.16,21.44 0,8.4 3.01,15.41 8.98,20.95 6.03,5.54 13.63,8.28 22.8,8.28 9.05,0 16.65,-2.8 22.74,-8.46 6.03,-5.67 9.04,-12.73 9.04,-21.14 0,-8.58 -3.01,-15.71 -9.16,-21.44 -6.16,-5.72 -13.75,-8.52 -22.98,-8.52zm-7.6 143.61c-10.8,0 -19.66,2.31 -26.6,6.94 -6.87,4.63 -10.31,10.6 -10.31,17.85 0,16.93 15.08,25.33 45.23,25.33 14.24,0 25.27,-2.07 33.11,-6.33 7.84,-4.2 11.76,-10.17 11.76,-17.91 0,-7.61 -4.94,-13.82 -14.83,-18.63 -9.89,-4.81 -22.68,-7.25 -38.36,-7.25zm-179.37 -177.26l0 20.96c14.05,-16.12 30.05,-24.21 47.94,-24.21 9.92,0 19.13,2.64 27.63,7.97 8.56,5.33 15.06,12.62 19.49,21.94 4.42,9.25 6.67,23.96 6.67,44.06 0,31.48 0,62.95 0,94.43 -22.73,3.24 -26.55,-9.06 -31.47,-20.44l0 -73.62c0,-16.92 -2.48,-28.93 -7.44,-36.16 -4.96,-7.29 -13.28,-10.91 -24.91,-10.91 -14.88,0 -27.52,7.72 -37.91,23.17l0 117.96 -32.17 0 0 -165.15 32.17 0zm-344.46 65.88l0 70.16c0,5.64 1.9,8.46 5.59,8.46 2.38,0 5.56,-1.26 9.71,-3.43 14.26,-7.47 3.23,18.05 -9.11,24.33 -4.19,2.13 -8.93,2.63 -13.68,2.63 -13.57,0 -21.6,-5.51 -24.04,-16.54 -13.5,10.78 -27.84,16.17 -43.07,16.17 -11.12,0 -20.4,-3.79 -27.84,-11.39 -7.43,-7.6 -11.18,-17.16 -11.18,-28.62 0,-10.42 3.63,-19.73 10.88,-27.95 7.26,-8.21 17.61,-14.7 30.94,-19.48l40.63 -14.34 0 -8.83c0,-19.85 -9.64,-29.78 -28.91,-29.78 -17.31,0 -34.21,9.19 -50.57,27.64l0 -35.73c12.32,-14.95 30.04,-22.43 53.19,-22.43 17.31,0 31.17,4.66 41.64,13.97 3.45,3.01 6.6,6.99 9.4,11.95 2.79,4.97 4.58,9.93 5.29,14.89 0.77,5.03 1.13,14.4 1.13,28.32zm-31.17 66.61l0 -49.03 -21.3 8.46c-10.77,4.41 -18.44,8.89 -22.9,13.36 -4.46,4.47 -6.72,10.05 -6.72,16.79 0,6.8 2.14,12.38 6.36,16.67 4.28,4.35 9.76,6.5 16.48,6.5 10.11,0 19.45,-4.29 28.08,-12.75z"/>
 </g>
</svg>
